# xmcd
#
# Track frame offsets: 
#        150
#        15762
#        33424
#        47281
#        61799
#
# Disc length: 954 seconds
#
# Revision: 0
# Processed by: cddbd v1.5.2PL0 Copyright (c) Steve Scherf et al.
# Submitted via: ExactAudioCopyFreeDBPlugin 1.0
#
DISCID=2803b805
DTITLE=All Our Exes Live In Texas - All Our Exes Live In Texas
DYEAR=2013
DGENRE=Country
TTITLE0=Bury Me Under The Weeping Willow
TTITLE1=Hawaiian Nose Guitar
TTITLE2=I'm Not That Lonely Yet
TTITLE3=Our Love Won't Die
TTITLE4=Hotel Yorba
EXTD=
EXTT0=
EXTT1=
EXTT2=
EXTT3=
EXTT4=
PLAYORDER=
